<svg xmlns="http://www.w3.org/2000/svg" width="41" height="44" viewBox="0 0 41 44" fill="none">
  <path d="M20.4997 29.2147C24.6006 29.2147 27.9251 25.8902 27.9251 21.7892C27.9251 17.6883 24.6006 14.3638 20.4997 14.3638C16.3987 14.3638 13.0742 17.6883 13.0742 21.7892C13.0742 25.8902 16.3987 29.2147 20.4997 29.2147Z" fill="#AECDFB"/>
  <path d="M20.4997 43.7703C20.4438 43.7703 20.3874 43.7606 20.332 43.7402C8.2712 39.3101 1.59957 28.0776 0.50093 10.3548C0.48634 10.118 0.644887 9.90498 0.875899 9.851C6.38954 8.569 11.2714 6.5575 15.3849 3.87192C15.6101 3.72505 15.9111 3.78827 16.058 4.01345C16.2049 4.23862 16.1416 4.54015 15.9165 4.68654C11.8079 7.36871 6.95856 9.39238 1.49793 10.7036C2.65736 28.0056 8.93019 38.5164 20.667 42.8278C20.9195 42.9202 21.0483 43.1999 20.9559 43.4518C20.884 43.6483 20.6977 43.7703 20.4997 43.7703Z" fill="#0C0C0C"/>
  <path d="M20.5 43.7703C20.4018 43.7703 20.3045 43.7402 20.2218 43.6828C20.0915 43.5919 20.0137 43.443 20.0137 43.284V31.5272C20.0137 31.2583 20.2316 31.0409 20.5 31.0409C20.7685 31.0409 20.9864 31.2583 20.9864 31.5272V42.5788C32.302 38.12 38.3638 27.6807 39.5013 10.7036C32.0739 8.92063 25.8532 5.85571 20.9864 1.5832V8.24947C20.9864 8.51793 20.7685 8.73582 20.5 8.73582C20.2316 8.73582 20.0137 8.51793 20.0137 8.24947V0.486018C20.0137 0.292455 20.1284 0.116886 20.3064 0.0400437C20.4845 -0.0367982 20.6911 -0.00129529 20.8322 0.131476C25.771 4.75317 32.2612 8.02381 40.1239 9.85148C40.3554 9.90547 40.5139 10.1185 40.4988 10.3553C39.4002 28.0776 32.7286 39.3106 20.6678 43.7402C20.6133 43.7601 20.5564 43.7703 20.5 43.7703Z" fill="#0C0C0C"/>
  <path d="M20.4996 32.0135C18.1223 32.0135 15.8112 31.1741 13.9909 29.6509C13.7851 29.4787 13.7579 29.1718 13.9301 28.9661C14.1022 28.7599 14.4086 28.7322 14.6153 28.9053C16.2606 30.2826 18.3504 31.0413 20.4996 31.0413C25.5565 31.0413 29.6705 26.9274 29.6705 21.8704C29.6705 16.8134 25.5565 12.6985 20.4996 12.6985C15.4426 12.6985 11.3282 16.8125 11.3282 21.8699C11.3282 22.1384 11.1103 22.3563 10.8418 22.3563C10.5733 22.3563 10.3555 22.1384 10.3555 21.8699C10.3555 16.2765 14.9062 11.7258 20.4996 11.7258C26.093 11.7258 30.6432 16.2765 30.6432 21.8699C30.6432 27.4633 26.093 32.0135 20.4996 32.0135Z" fill="#0C0C0C"/>
  <path d="M19.8773 25.6153C19.7377 25.6153 19.6045 25.555 19.5125 25.4504L16.3504 21.8568C16.1728 21.655 16.1923 21.3481 16.3941 21.1706C16.596 20.9926 16.9033 21.013 17.0804 21.2144L19.8749 24.3892L25.2061 18.2287C25.3812 18.0254 25.6891 18.004 25.8919 18.1791C26.0952 18.3552 26.1171 18.6621 25.9415 18.8654L20.245 25.447C20.1531 25.5535 20.0198 25.6148 19.8792 25.6153C19.8788 25.6153 19.8778 25.6153 19.8773 25.6153Z" fill="#0C0C0C"/>
</svg>