<svg width="20" height="20" viewBox="0 0 20 20" fill="none" xmlns="http://www.w3.org/2000/svg">
<path d="M19.6954 5.97978C19.6486 4.94155 19.4809 4.23119 19.2429 3.61059C18.9933 2.97048 18.6617 2.42404 18.1195 1.88541C17.5773 1.34678 17.0351 1.00721 16.3953 0.761309C15.7751 0.519315 15.0652 0.355384 14.0276 0.308547C12.9861 0.261709 12.6545 0.25 10.0098 0.25C7.36114 0.25 7.02957 0.261709 5.99196 0.308547C4.95436 0.355384 4.24442 0.523219 3.62419 0.761309C2.98056 1.01111 2.43445 1.34287 1.89615 1.88541C1.35784 2.42794 1.01847 2.97048 0.772721 3.61059C0.534773 4.23119 0.36704 4.94155 0.32023 5.97978C0.273421 7.02192 0.261719 7.35368 0.261719 10C0.261719 12.6502 0.273421 12.982 0.32023 14.0202C0.36704 15.0584 0.534773 15.7688 0.772721 16.3894C1.02237 17.0295 1.35394 17.576 1.89615 18.1146C2.43445 18.6571 2.98056 18.9928 3.62029 19.2387C4.24051 19.4807 4.95046 19.6446 5.98806 19.6915C7.02957 19.7383 7.36114 19.75 10.0059 19.75C12.6545 19.75 12.9861 19.7383 14.0237 19.6915C15.0613 19.6446 15.7712 19.4768 16.3914 19.2387C17.0312 18.9889 17.5773 18.6571 18.1156 18.1146C18.6539 17.5721 18.9933 17.0295 19.239 16.3894C19.4809 15.7688 19.6447 15.0584 19.6915 14.0202C19.7383 12.9781 19.75 12.6463 19.75 10C19.75 7.35368 19.7422 7.01801 19.6954 5.97978ZM17.944 13.9422C17.901 14.8945 17.7411 15.4136 17.6085 15.7532C17.433 16.206 17.2184 16.5338 16.8751 16.8773C16.5319 17.2208 16.2081 17.4276 15.7517 17.6111C15.4084 17.7438 14.8896 17.9038 13.9418 17.9468C12.9158 17.9936 12.6077 18.0053 10.002 18.0053C7.39625 18.0053 7.08808 17.9936 6.06218 17.9468C5.11039 17.9038 4.59158 17.7438 4.25222 17.6111C3.79973 17.4354 3.47206 17.2208 3.12879 16.8773C2.78552 16.5338 2.57878 16.2099 2.39545 15.7532C2.26282 15.4097 2.10289 14.8906 2.05998 13.9422C2.01317 12.9156 2.00147 12.6073 2.00147 10C2.00147 7.39271 2.01317 7.08437 2.05998 6.05785C2.10289 5.10548 2.26282 4.58637 2.39545 4.2468C2.57098 3.79404 2.78552 3.46617 3.12879 3.1227C3.47206 2.77922 3.79583 2.57236 4.25222 2.38891C4.59549 2.25621 5.11429 2.09618 6.06218 2.05324C7.08808 2.00641 7.39625 1.9947 10.002 1.9947C12.6077 1.9947 12.9158 2.00641 13.9418 2.05324C14.8935 2.09618 15.4123 2.25621 15.7517 2.38891C16.2042 2.56455 16.5319 2.77922 16.8751 3.1227C17.2184 3.46617 17.4252 3.79013 17.6085 4.2468C17.7411 4.59027 17.901 5.10939 17.944 6.05785C17.9908 7.08437 18.0025 7.39271 18.0025 10C18.0025 12.6073 17.9869 12.9156 17.944 13.9422Z" fill="url(#paint0_linear_4814_6008)"/>
<path d="M10.0018 4.98837C7.23221 4.98837 4.99316 7.23267 4.99316 9.99998C4.99316 12.7712 7.23611 15.0116 10.0018 15.0116C12.7674 15.0116 15.0104 12.7634 15.0104 9.99998C15.0104 7.22877 12.7713 4.98837 10.0018 4.98837ZM10.0018 13.2513C8.20741 13.2513 6.75242 11.7954 6.75242 9.99998C6.75242 8.20455 8.20741 6.74868 10.0018 6.74868C11.7961 6.74868 13.2511 8.20455 13.2511 9.99998C13.2511 11.7954 11.7961 13.2513 10.0018 13.2513Z" fill="url(#paint1_linear_4814_6008)"/>
<path d="M15.2054 5.96416C15.8517 5.96416 16.3756 5.43991 16.3756 4.79322C16.3756 4.14653 15.8517 3.62228 15.2054 3.62228C14.5591 3.62228 14.0352 4.14653 14.0352 4.79322C14.0352 5.43991 14.5591 5.96416 15.2054 5.96416Z" fill="#BC30A0"/>
<path d="M0.25 10C0.25 12.6502 0.261702 12.982 0.308512 14.0202C0.355321 15.0584 0.523055 15.7688 0.761002 16.3894C1.01065 17.0295 1.34222 17.576 1.88443 18.1146C2.42273 18.6532 2.96884 18.9928 3.60857 19.2387C4.2288 19.4807 4.93874 19.6446 5.97635 19.6915C7.01785 19.7383 7.34942 19.75 9.99415 19.75C12.6428 19.75 12.9743 19.7383 14.012 19.6915C15.0496 19.6446 15.7595 19.4768 16.3797 19.2387C17.0195 18.9889 17.5656 18.6571 18.1039 18.1146C18.6422 17.576 18.9815 17.0295 19.2273 16.3894C19.4691 15.7688 19.633 15.0584 19.6798 14.0202C19.7266 12.9781 19.7383 12.6463 19.7383 10C19.7383 7.34978 19.7266 7.01801 19.6798 5.97978C19.633 4.94155 19.4652 4.23119 19.2273 3.61059C18.9776 2.97048 18.6461 2.42404 18.1039 1.88541C17.5695 1.34287 17.0234 1.00721 16.3836 0.761309C15.7634 0.519315 15.0535 0.355384 14.0159 0.308547C12.9743 0.261709 12.6428 0.25 9.99805 0.25C7.34942 0.25 7.01785 0.261709 5.98025 0.308547C4.94264 0.355384 4.2327 0.523219 3.61247 0.761309C2.97274 1.01111 2.42664 1.34287 1.88833 1.88541C1.35002 2.42794 1.01065 2.97048 0.764903 3.61059C0.523055 4.23119 0.355321 4.94155 0.308512 5.97978C0.261702 7.01801 0.25 7.34978 0.25 10ZM2.00925 10C2.00925 7.39662 2.02095 7.08437 2.06776 6.05785C2.11067 5.10548 2.2706 4.58637 2.40323 4.2468C2.57877 3.79404 2.79331 3.46617 3.13658 3.1227C3.47985 2.77922 3.80361 2.57236 4.26 2.38891C4.60327 2.25621 5.12207 2.09618 6.06996 2.05324C7.09587 2.00641 7.40403 1.9947 10.0098 1.9947C12.6155 1.9947 12.9236 2.00641 13.9495 2.05324C14.9013 2.09618 15.4201 2.25621 15.7595 2.38891C16.212 2.56455 16.5397 2.77922 16.8829 3.1227C17.2262 3.46617 17.4329 3.79013 17.6163 4.2468C17.7489 4.59027 17.9088 5.10939 17.9517 6.05785C17.9985 7.08437 18.0103 7.39271 18.0103 10C18.0103 12.6073 17.9985 12.9156 17.9517 13.9422C17.9088 14.8945 17.7489 15.4136 17.6163 15.7532C17.4407 16.206 17.2262 16.5338 16.8829 16.8773C16.5397 17.2208 16.2159 17.4276 15.7595 17.6111C15.4162 17.7438 14.8974 17.9038 13.9495 17.9468C12.9236 17.9936 12.6155 18.0053 10.0098 18.0053C7.40403 18.0053 7.09587 17.9936 6.06996 17.9468C5.11817 17.9038 4.59937 17.7438 4.26 17.6111C3.80751 17.4354 3.47985 17.2208 3.13658 16.8773C2.79331 16.5338 2.58657 16.2099 2.40323 15.7532C2.2706 15.4097 2.11067 14.8906 2.06776 13.9422C2.01705 12.9156 2.00925 12.6034 2.00925 10Z" fill="url(#paint2_linear_4814_6008)"/>
<defs>
<linearGradient id="paint0_linear_4814_6008" x1="16.7401" y1="1.7411" x2="2.63311" y2="19.0249" gradientUnits="userSpaceOnUse">
<stop stop-color="#AE3DAE"/>
<stop offset="0.0468721" stop-color="#B23BA6"/>
<stop offset="0.1216" stop-color="#BD368E"/>
<stop offset="0.2148" stop-color="#CE2E69"/>
<stop offset="0.3216" stop-color="#E62335"/>
<stop offset="0.418" stop-color="#FF1800"/>
</linearGradient>
<linearGradient id="paint1_linear_4814_6008" x1="12.3904" y1="5.98043" x2="7.26566" y2="14.5917" gradientUnits="userSpaceOnUse">
<stop stop-color="#E12F6A"/>
<stop offset="0.1705" stop-color="#EA3751"/>
<stop offset="0.3563" stop-color="#F13D3E"/>
<stop offset="0.5467" stop-color="#F64133"/>
<stop offset="0.7469" stop-color="#F7422F"/>
<stop offset="0.7946" stop-color="#F74C2F"/>
<stop offset="0.8743" stop-color="#F7652F"/>
<stop offset="0.9757" stop-color="#F78F2E"/>
<stop offset="1" stop-color="#F79A2E"/>
</linearGradient>
<linearGradient id="paint2_linear_4814_6008" x1="14.4184" y1="-0.552775" x2="5.78629" y2="20.0233" gradientUnits="userSpaceOnUse">
<stop offset="0.2341" stop-color="#9E35A5" stop-opacity="0"/>
<stop offset="0.4512" stop-color="#D42F7F" stop-opacity="0.5"/>
<stop offset="0.7524" stop-color="#F7772E"/>
<stop offset="0.9624" stop-color="#FEF780"/>
</linearGradient>
</defs>
</svg>
