<svg width="60" height="51" viewBox="0 0 60 51" fill="none" xmlns="http://www.w3.org/2000/svg">
<rect x="0.5" y="0.5" width="59" height="50" rx="3.5" fill="white"/>
<path d="M25.4972 11.9091V25H24.3018V13.1619H24.2251L21.157 15.201V13.9609L24.2507 11.9091H25.4972ZM33.5192 25.179C32.6839 25.179 31.9403 25.0213 31.2884 24.706C30.6364 24.3906 30.125 23.9602 29.7543 23.4148C29.3835 22.8651 29.1982 22.245 29.1982 21.5547C29.1982 21.0135 29.3111 20.5085 29.5369 20.0398C29.7628 19.5668 30.0739 19.1705 30.4702 18.8509C30.8665 18.527 31.3118 18.3161 31.8061 18.218V18.1477C31.1626 17.9602 30.6449 17.5916 30.2528 17.0419C29.8608 16.4879 29.6669 15.8594 29.6712 15.1562C29.6669 14.5043 29.8331 13.9205 30.1697 13.4048C30.5064 12.8892 30.9645 12.4822 31.544 12.1839C32.1278 11.8814 32.7862 11.7301 33.5192 11.7301C34.2479 11.7301 34.902 11.8814 35.4815 12.1839C36.0611 12.4822 36.5192 12.8892 36.8558 13.4048C37.1967 13.9205 37.3693 14.5043 37.3736 15.1562C37.3693 15.8551 37.1712 16.4837 36.7791 17.0419C36.3871 17.5959 35.8714 17.9645 35.2322 18.1477V18.218C35.7266 18.3118 36.1697 18.5206 36.5618 18.8445C36.9538 19.1683 37.2649 19.5668 37.495 20.0398C37.7251 20.5085 37.8402 21.0135 37.8402 21.5547C37.8402 22.245 37.6527 22.8651 37.2777 23.4148C36.907 23.9602 36.3956 24.3906 35.7436 24.706C35.0959 25.0213 34.3544 25.179 33.5192 25.179ZM33.5192 24.1051C34.1413 24.1051 34.6868 23.9943 35.1555 23.7727C35.6286 23.5469 35.9972 23.2379 36.2614 22.8459C36.5298 22.4538 36.6641 22.0043 36.6641 21.4972C36.6641 20.973 36.5256 20.5064 36.2486 20.0973C35.9716 19.6839 35.5966 19.358 35.1236 19.1193C34.6506 18.8764 34.1158 18.755 33.5192 18.755C32.9226 18.755 32.3857 18.8764 31.9084 19.1193C31.4354 19.358 31.0604 19.6839 30.7834 20.0973C30.5107 20.5064 30.3743 20.973 30.3743 21.4972C30.3743 22.0043 30.5043 22.4538 30.7642 22.8459C31.0284 23.2379 31.397 23.5469 31.87 23.7727C32.3473 23.9943 32.897 24.1051 33.5192 24.1051ZM33.5192 17.7322C34.0305 17.7322 34.4886 17.6236 34.8935 17.4062C35.2983 17.1889 35.6179 16.8928 35.8523 16.5178C36.0909 16.1385 36.2124 15.7081 36.2166 15.2266C36.2124 14.7493 36.093 14.3274 35.8587 13.9609C35.6243 13.5902 35.3047 13.3026 34.8999 13.098C34.4993 12.8892 34.0391 12.7848 33.5192 12.7848C32.9993 12.7848 32.5348 12.8892 32.1257 13.098C31.7209 13.3026 31.4013 13.5902 31.1669 13.9609C30.9368 14.3274 30.8239 14.7493 30.8281 15.2266C30.8239 15.7081 30.9389 16.1385 31.1733 16.5178C31.4119 16.8928 31.7337 17.1889 32.1385 17.4062C32.5476 17.6236 33.0078 17.7322 33.5192 17.7322Z" fill="#444444"/>
<path d="M9.65909 32.2727H10.5795L13.7457 39.875H13.8224L16.9886 32.2727H17.9091V41H17.1591V33.956H17.0909L14.1463 41H13.4219L10.4773 33.956H10.4091V41H9.65909V32.2727ZM22.6158 41.1364C22.0504 41.1364 21.5504 40.9929 21.1158 40.706C20.6839 40.419 20.3459 40.0227 20.1016 39.517C19.8572 39.0085 19.7351 38.4219 19.7351 37.7571C19.7351 37.0866 19.8572 36.4972 20.1016 35.9886C20.3459 35.4773 20.6839 35.0795 21.1158 34.7955C21.5504 34.5085 22.0504 34.3651 22.6158 34.3651C23.1811 34.3651 23.6797 34.5085 24.1115 34.7955C24.5433 35.0824 24.8814 35.4801 25.1257 35.9886C25.3729 36.4972 25.4964 37.0866 25.4964 37.7571C25.4964 38.4219 25.3743 39.0085 25.13 39.517C24.8857 40.0227 24.5462 40.419 24.1115 40.706C23.6797 40.9929 23.1811 41.1364 22.6158 41.1364ZM22.6158 40.4418C23.0703 40.4418 23.4553 40.3196 23.7706 40.0753C24.0859 39.831 24.3246 39.5057 24.4865 39.0994C24.6513 38.6932 24.7337 38.2457 24.7337 37.7571C24.7337 37.2685 24.6513 36.8196 24.4865 36.4105C24.3246 36.0014 24.0859 35.6733 23.7706 35.4261C23.4553 35.179 23.0703 35.0554 22.6158 35.0554C22.1641 35.0554 21.7791 35.179 21.4609 35.4261C21.1456 35.6733 20.9055 36.0014 20.7408 36.4105C20.5788 36.8196 20.4979 37.2685 20.4979 37.7571C20.4979 38.2457 20.5788 38.6932 20.7408 39.0994C20.9055 39.5057 21.1456 39.831 21.4609 40.0753C21.7763 40.3196 22.1612 40.4418 22.6158 40.4418ZM27.9201 36.9091V41H27.1616V34.4545H27.8988V35.4815H27.967C28.1204 35.1463 28.359 34.8778 28.6829 34.6761C29.0096 34.4716 29.413 34.3693 29.8931 34.3693C30.3335 34.3693 30.7198 34.4616 31.0522 34.6463C31.3874 34.8281 31.6474 35.0966 31.832 35.4517C32.0195 35.8068 32.1133 36.2429 32.1133 36.7599V41H31.3548V36.8068C31.3548 36.2699 31.2042 35.8452 30.9031 35.5327C30.6048 35.2202 30.2042 35.0639 29.7013 35.0639C29.3576 35.0639 29.0522 35.1378 28.7852 35.2855C28.5181 35.4332 28.3065 35.6463 28.1502 35.9247C27.9968 36.2003 27.9201 36.5284 27.9201 36.9091ZM36.6889 34.4545V35.1151H33.5653V34.4545H36.6889ZM34.5412 32.8864H35.304V39.2912C35.304 39.5639 35.3509 39.7784 35.4446 39.9347C35.5384 40.0881 35.6605 40.1974 35.8111 40.2628C35.9616 40.3253 36.1222 40.3565 36.2926 40.3565C36.392 40.3565 36.4773 40.3509 36.5483 40.3395C36.6193 40.3253 36.6818 40.3111 36.7358 40.2969L36.8977 40.983C36.8239 41.0114 36.733 41.0369 36.625 41.0597C36.517 41.0852 36.3835 41.098 36.2244 41.098C35.946 41.098 35.6776 41.0369 35.419 40.9148C35.1634 40.7926 34.9531 40.6108 34.7884 40.3693C34.6236 40.1278 34.5412 39.8281 34.5412 39.4702V32.8864ZM39.3107 36.9091V41H38.5522V32.2727H39.3107V35.4815H39.3789C39.5323 35.1435 39.7695 34.8736 40.0906 34.6719C40.4144 34.4702 40.8235 34.3693 41.3178 34.3693C41.761 34.3693 42.1502 34.4602 42.4854 34.642C42.8207 34.8239 43.082 35.0923 43.2695 35.4474C43.457 35.8026 43.5508 36.2401 43.5508 36.7599V41H42.788V36.8068C42.788 36.267 42.6374 35.8423 42.3363 35.5327C42.038 35.2202 41.6346 35.0639 41.1261 35.0639C40.7766 35.0639 40.4656 35.1378 40.1928 35.2855C39.9201 35.4332 39.7042 35.6463 39.5451 35.9247C39.3888 36.2003 39.3107 36.5284 39.3107 36.9091ZM49.946 35.8906L49.2514 36.0866C49.1832 35.8906 49.0866 35.7131 48.9616 35.554C48.8366 35.3949 48.6733 35.2685 48.4716 35.1747C48.2727 35.081 48.0256 35.0341 47.7301 35.0341C47.2869 35.0341 46.9233 35.1392 46.6392 35.3494C46.3551 35.5597 46.2131 35.831 46.2131 36.1634C46.2131 36.4446 46.3097 36.6733 46.5028 36.8494C46.6989 37.0227 47 37.1605 47.4062 37.2628L48.3949 37.5057C48.9432 37.6392 49.3537 37.8509 49.6264 38.1406C49.902 38.4304 50.0398 38.794 50.0398 39.2315C50.0398 39.6009 49.9375 39.929 49.733 40.2159C49.5284 40.5028 49.2429 40.7287 48.8764 40.8935C48.5128 41.0554 48.0909 41.1364 47.6108 41.1364C46.9716 41.1364 46.4446 40.9929 46.0298 40.706C45.6151 40.4162 45.3494 39.9986 45.233 39.4531L45.9616 39.2741C46.0554 39.6634 46.2386 39.9574 46.5114 40.1562C46.7869 40.3551 47.1491 40.4545 47.598 40.4545C48.1009 40.4545 48.5028 40.3423 48.804 40.1179C49.1051 39.8906 49.2557 39.6065 49.2557 39.2656C49.2557 39.0014 49.1676 38.7798 48.9915 38.6009C48.8153 38.419 48.5483 38.2855 48.1903 38.2003L47.1207 37.9446C46.5526 37.8082 46.1321 37.5923 45.8594 37.2969C45.5866 37.0014 45.4503 36.6349 45.4503 36.1974C45.4503 35.8366 45.5483 35.5199 45.7443 35.2472C45.9403 34.9716 46.2102 34.7557 46.554 34.5994C46.8977 34.4432 47.2898 34.3651 47.7301 34.3651C48.3295 34.3651 48.8082 34.5014 49.1662 34.7741C49.527 35.044 49.7869 35.4162 49.946 35.8906Z" fill="#717171"/>
<rect x="0.5" y="0.5" width="59" height="50" rx="3.5" stroke="#EDEDED"/>
</svg>
