<svg width="60" height="51" viewBox="0 0 60 51" fill="none" xmlns="http://www.w3.org/2000/svg">
<rect x="0.5" y="0.5" width="59" height="50" rx="3.5" fill="white"/>
<path d="M30.0803 25.179C29.5391 25.1747 29.0107 25.0661 28.495 24.853C27.9794 24.6357 27.5149 24.2884 27.1016 23.8111C26.6882 23.3295 26.3601 22.6946 26.1172 21.9062C25.8743 21.1179 25.7528 20.1484 25.7528 18.9979C25.7528 17.9325 25.8466 16.9567 26.0341 16.0703C26.2216 15.1839 26.5028 14.4169 26.8778 13.7692C27.2528 13.1214 27.7216 12.6207 28.2841 12.267C28.8466 11.9091 29.505 11.7301 30.2592 11.7301C30.9666 11.7301 31.5909 11.8771 32.1321 12.1712C32.6733 12.4609 33.1122 12.8658 33.4489 13.3857C33.7855 13.9055 33.9964 14.5043 34.0817 15.1818H32.9055C32.7862 14.4915 32.5028 13.9226 32.0554 13.4751C31.608 13.0277 31.0092 12.804 30.2592 12.804C29.1854 12.804 28.3544 13.3026 27.7663 14.2997C27.1783 15.2926 26.8821 16.7031 26.8778 18.5312H26.9609C27.1697 18.1435 27.4382 17.8089 27.7663 17.5277C28.0987 17.2422 28.4759 17.0206 28.8977 16.8629C29.3196 16.701 29.7628 16.62 30.2273 16.62C30.956 16.62 31.6229 16.8054 32.228 17.1761C32.8331 17.5426 33.3168 18.0476 33.679 18.6911C34.0412 19.3303 34.2223 20.0611 34.2223 20.8835C34.2223 21.6634 34.0497 22.3814 33.7045 23.0376C33.3636 23.6939 32.8821 24.2159 32.2599 24.6037C31.642 24.9915 30.9155 25.1832 30.0803 25.179ZM30.0803 24.1051C30.6513 24.1051 31.1605 23.9602 31.608 23.6705C32.0597 23.3807 32.4155 22.9929 32.6754 22.5071C32.9354 22.017 33.0653 21.4759 33.0653 20.8835C33.0653 20.2912 32.9354 19.7543 32.6754 19.2727C32.4155 18.7912 32.0597 18.4077 31.608 18.1222C31.1605 17.8366 30.6513 17.6939 30.0803 17.6939C29.6456 17.6939 29.2408 17.7834 28.8658 17.9624C28.4908 18.1371 28.1648 18.3778 27.8878 18.6847C27.6151 18.9872 27.4062 19.3345 27.2614 19.7266C27.1207 20.1186 27.0675 20.5298 27.1016 20.9602C27.1484 21.5611 27.304 22.1001 27.5682 22.5774C27.8366 23.0504 28.1861 23.4233 28.6165 23.696C29.0511 23.9687 29.5391 24.1051 30.0803 24.1051Z" fill="#444444"/>
<path d="M9.65909 32.2727H10.5795L13.7457 39.875H13.8224L16.9886 32.2727H17.9091V41H17.1591V33.956H17.0909L14.1463 41H13.4219L10.4773 33.956H10.4091V41H9.65909V32.2727ZM22.6158 41.1364C22.0504 41.1364 21.5504 40.9929 21.1158 40.706C20.6839 40.419 20.3459 40.0227 20.1016 39.517C19.8572 39.0085 19.7351 38.4219 19.7351 37.7571C19.7351 37.0866 19.8572 36.4972 20.1016 35.9886C20.3459 35.4773 20.6839 35.0795 21.1158 34.7955C21.5504 34.5085 22.0504 34.3651 22.6158 34.3651C23.1811 34.3651 23.6797 34.5085 24.1115 34.7955C24.5433 35.0824 24.8814 35.4801 25.1257 35.9886C25.3729 36.4972 25.4964 37.0866 25.4964 37.7571C25.4964 38.4219 25.3743 39.0085 25.13 39.517C24.8857 40.0227 24.5462 40.419 24.1115 40.706C23.6797 40.9929 23.1811 41.1364 22.6158 41.1364ZM22.6158 40.4418C23.0703 40.4418 23.4553 40.3196 23.7706 40.0753C24.0859 39.831 24.3246 39.5057 24.4865 39.0994C24.6513 38.6932 24.7337 38.2457 24.7337 37.7571C24.7337 37.2685 24.6513 36.8196 24.4865 36.4105C24.3246 36.0014 24.0859 35.6733 23.7706 35.4261C23.4553 35.179 23.0703 35.0554 22.6158 35.0554C22.1641 35.0554 21.7791 35.179 21.4609 35.4261C21.1456 35.6733 20.9055 36.0014 20.7408 36.4105C20.5788 36.8196 20.4979 37.2685 20.4979 37.7571C20.4979 38.2457 20.5788 38.6932 20.7408 39.0994C20.9055 39.5057 21.1456 39.831 21.4609 40.0753C21.7763 40.3196 22.1612 40.4418 22.6158 40.4418ZM27.9201 36.9091V41H27.1616V34.4545H27.8988V35.4815H27.967C28.1204 35.1463 28.359 34.8778 28.6829 34.6761C29.0096 34.4716 29.413 34.3693 29.8931 34.3693C30.3335 34.3693 30.7198 34.4616 31.0522 34.6463C31.3874 34.8281 31.6474 35.0966 31.832 35.4517C32.0195 35.8068 32.1133 36.2429 32.1133 36.7599V41H31.3548V36.8068C31.3548 36.2699 31.2042 35.8452 30.9031 35.5327C30.6048 35.2202 30.2042 35.0639 29.7013 35.0639C29.3576 35.0639 29.0522 35.1378 28.7852 35.2855C28.5181 35.4332 28.3065 35.6463 28.1502 35.9247C27.9968 36.2003 27.9201 36.5284 27.9201 36.9091ZM36.6889 34.4545V35.1151H33.5653V34.4545H36.6889ZM34.5412 32.8864H35.304V39.2912C35.304 39.5639 35.3509 39.7784 35.4446 39.9347C35.5384 40.0881 35.6605 40.1974 35.8111 40.2628C35.9616 40.3253 36.1222 40.3565 36.2926 40.3565C36.392 40.3565 36.4773 40.3509 36.5483 40.3395C36.6193 40.3253 36.6818 40.3111 36.7358 40.2969L36.8977 40.983C36.8239 41.0114 36.733 41.0369 36.625 41.0597C36.517 41.0852 36.3835 41.098 36.2244 41.098C35.946 41.098 35.6776 41.0369 35.419 40.9148C35.1634 40.7926 34.9531 40.6108 34.7884 40.3693C34.6236 40.1278 34.5412 39.8281 34.5412 39.4702V32.8864ZM39.3107 36.9091V41H38.5522V32.2727H39.3107V35.4815H39.3789C39.5323 35.1435 39.7695 34.8736 40.0906 34.6719C40.4144 34.4702 40.8235 34.3693 41.3178 34.3693C41.761 34.3693 42.1502 34.4602 42.4854 34.642C42.8207 34.8239 43.082 35.0923 43.2695 35.4474C43.457 35.8026 43.5508 36.2401 43.5508 36.7599V41H42.788V36.8068C42.788 36.267 42.6374 35.8423 42.3363 35.5327C42.038 35.2202 41.6346 35.0639 41.1261 35.0639C40.7766 35.0639 40.4656 35.1378 40.1928 35.2855C39.9201 35.4332 39.7042 35.6463 39.5451 35.9247C39.3888 36.2003 39.3107 36.5284 39.3107 36.9091ZM49.946 35.8906L49.2514 36.0866C49.1832 35.8906 49.0866 35.7131 48.9616 35.554C48.8366 35.3949 48.6733 35.2685 48.4716 35.1747C48.2727 35.081 48.0256 35.0341 47.7301 35.0341C47.2869 35.0341 46.9233 35.1392 46.6392 35.3494C46.3551 35.5597 46.2131 35.831 46.2131 36.1634C46.2131 36.4446 46.3097 36.6733 46.5028 36.8494C46.6989 37.0227 47 37.1605 47.4062 37.2628L48.3949 37.5057C48.9432 37.6392 49.3537 37.8509 49.6264 38.1406C49.902 38.4304 50.0398 38.794 50.0398 39.2315C50.0398 39.6009 49.9375 39.929 49.733 40.2159C49.5284 40.5028 49.2429 40.7287 48.8764 40.8935C48.5128 41.0554 48.0909 41.1364 47.6108 41.1364C46.9716 41.1364 46.4446 40.9929 46.0298 40.706C45.6151 40.4162 45.3494 39.9986 45.233 39.4531L45.9616 39.2741C46.0554 39.6634 46.2386 39.9574 46.5114 40.1562C46.7869 40.3551 47.1491 40.4545 47.598 40.4545C48.1009 40.4545 48.5028 40.3423 48.804 40.1179C49.1051 39.8906 49.2557 39.6065 49.2557 39.2656C49.2557 39.0014 49.1676 38.7798 48.9915 38.6009C48.8153 38.419 48.5483 38.2855 48.1903 38.2003L47.1207 37.9446C46.5526 37.8082 46.1321 37.5923 45.8594 37.2969C45.5866 37.0014 45.4503 36.6349 45.4503 36.1974C45.4503 35.8366 45.5483 35.5199 45.7443 35.2472C45.9403 34.9716 46.2102 34.7557 46.554 34.5994C46.8977 34.4432 47.2898 34.3651 47.7301 34.3651C48.3295 34.3651 48.8082 34.5014 49.1662 34.7741C49.527 35.044 49.7869 35.4162 49.946 35.8906Z" fill="#717171"/>
<rect x="0.5" y="0.5" width="59" height="50" rx="3.5" stroke="#EDEDED"/>
</svg>
