<svg xmlns="http://www.w3.org/2000/svg" width="16" height="17" viewBox="0 0 16 17" fill="none">
  <path d="M0.833658 10.5001V6.50008C0.833658 3.56008 1.72699 2.66675 4.66699 2.66675H11.3337C14.2737 2.66675 15.167 3.56008 15.167 6.50008V10.5001C15.167 13.4401 14.2737 14.3334 11.3337 14.3334H4.66699C1.72699 14.3334 0.833658 13.4401 0.833658 10.5001ZM14.167 6.50008C14.167 4.11341 13.7137 3.66675 11.3337 3.66675L4.66699 3.66675C2.28699 3.66675 1.83366 4.11341 1.83366 6.50008V10.5001C1.83366 12.8867 2.28699 13.3334 4.66699 13.3334H11.3337C13.7137 13.3334 14.167 12.8867 14.167 10.5001V6.50008Z" fill="#505050"/>
  <path d="M2.76048 8.49989C2.76048 7.65322 3.44715 6.96655 4.29382 6.96655C5.14048 6.96655 5.82715 7.65322 5.82715 8.49989C5.82715 9.34655 5.14048 10.0332 4.29382 10.0332C3.44715 10.0332 2.76048 9.34655 2.76048 8.49989ZM4.83382 8.49989C4.83382 8.20655 4.59382 7.96655 4.30048 7.96655C4.00715 7.96655 3.76715 8.20655 3.76715 8.49989C3.76715 8.79322 4.00715 9.03322 4.30048 9.03322C4.59382 9.03322 4.83382 8.79322 4.83382 8.49989Z" fill="#505050"/>
</svg>